<svg width="52" height="52" viewBox="0 0 52 52" fill="none" xmlns="http://www.w3.org/2000/svg">
<rect width="52" height="52" rx="12" fill="#5727E7" fill-opacity="0.09"/>
<path d="M25.1286 34.1783H17.3843L16.037 38.5595H10L18.5979 15.1107H23.915L32.5746 38.5595H26.5067L25.1286 34.1783ZM18.7419 29.8176H23.7813L21.2513 21.6826L18.7419 29.8176ZM33.9938 16.6431C33.9938 15.8718 34.2715 15.2341 34.8269 14.7405C35.3822 14.2468 36.1124 14 36.9969 14C37.8814 14 38.6116 14.2468 39.167 14.7405C39.7223 15.2341 40 15.8718 40 16.6431C40 17.4145 39.7223 18.0521 39.167 18.5458C38.6116 19.0394 37.8814 19.2863 36.9969 19.2863C36.1124 19.2863 35.3822 19.0394 34.8269 18.5458C34.2715 18.0521 33.9938 17.4145 33.9938 16.6431ZM39.7532 38.5595H34.3127V21.1375H39.7532V38.5595Z" fill="#5727E7"/>
</svg>
