<svg width="16" height="16" viewBox="0 0 16 16" fill="none" xmlns="http://www.w3.org/2000/svg">
<path d="M15.0712 13.375L9.55476 7.89182L14.9464 2.50021C15.058 2.38903 15.1466 2.25688 15.2071 2.11136C15.2675 1.96585 15.2987 1.80982 15.2987 1.65224C15.2987 1.49467 15.2675 1.33864 15.2071 1.19313C15.1466 1.04761 15.058 0.915464 14.9464 0.80428C14.8352 0.692617 14.703 0.604013 14.5575 0.543555C14.412 0.483096 14.256 0.451974 14.0984 0.451974C13.9408 0.451974 13.7848 0.483097 13.6393 0.543555C13.4938 0.604013 13.3616 0.692617 13.2504 0.804279L7.89193 6.19604L2.62486 0.928981C2.51368 0.817318 2.38154 0.728714 2.23602 0.668256C2.0905 0.607797 1.93448 0.576675 1.7769 0.576675C1.61932 0.576675 1.4633 0.607797 1.31778 0.668255C1.17226 0.728714 1.04012 0.817317 0.928934 0.92898C0.817278 1.04016 0.728683 1.1723 0.668235 1.31781C0.607787 1.46332 0.576677 1.61933 0.576691 1.7769C0.576705 1.93447 0.607843 2.09048 0.668317 2.23598C0.728791 2.38148 0.81741 2.5136 0.929085 2.62476L6.18783 7.88351L0.812546 13.2588C0.700908 13.37 0.612328 13.5021 0.551886 13.6477C0.491443 13.7932 0.460329 13.9492 0.460329 14.1068C0.460329 14.2643 0.491443 14.4203 0.551886 14.5659C0.612328 14.7114 0.700909 14.8435 0.812547 14.9547C0.923745 15.0664 1.05589 15.1549 1.20141 15.2154C1.34692 15.2758 1.50294 15.3069 1.66051 15.3069C1.81808 15.3069 1.9741 15.2758 2.11961 15.2154C2.26513 15.1549 2.39728 15.0664 2.50848 14.9547L7.88361 9.57959L13.3751 15.0711C13.4863 15.1828 13.6185 15.2713 13.764 15.3318C13.9095 15.3922 14.0655 15.4233 14.2231 15.4233C14.3807 15.4233 14.5367 15.3922 14.6822 15.3318C14.8277 15.2713 14.9599 15.1827 15.0711 15.0711C15.2957 14.8461 15.4219 14.5411 15.4219 14.2231C15.422 13.9051 15.2958 13.6001 15.0712 13.375Z" fill="#5727E7"/>
</svg>
