<svg width="27" height="27" viewBox="0 0 27 27" fill="none" xmlns="http://www.w3.org/2000/svg">
<rect width="27" height="27" rx="4" fill="white"/>
<path d="M7.81699 18.0095C12.5718 19.8651 16.6182 20.2265 21.2035 17.3382C21.1699 17.3886 20.2629 18.7324 17.8777 19.4211C18.3816 20.1098 19.0703 20.8992 19.0703 20.8992C20.5989 20.8992 22.0938 20.4625 23.3872 19.6226C24.395 18.9507 24.9661 17.7917 24.8485 16.5823C24.647 14.5162 24.1598 12.5006 23.404 10.5689C22.4465 8.04933 20.1453 6.30239 17.4745 6.05042C17.2394 6.03361 17.0714 6.03361 16.9706 6.03361L16.7019 6.30234C19.7758 7.17581 21.3044 8.53639 21.3379 8.5868C16.6179 6.20156 11.0412 6.168 6.28752 8.48602C6.28752 8.48602 7.79929 6.99106 11.1419 6.20156L10.9404 6C10.5876 6 10.2516 6.03361 9.89894 6.08398C7.42972 6.50391 5.36368 8.20043 4.47341 10.5353C3.70072 12.5509 3.19681 14.6674 3.01205 16.8175C2.91127 17.9597 3.44879 19.0851 4.38943 19.7402C5.63242 20.5633 7.11057 21 8.60554 21C8.60554 21 9.21022 20.2105 9.81496 19.505C7.54731 18.8331 6.62347 17.4894 6.60667 17.4389L7.03343 17.6569C7.28856 17.7874 7.55008 17.9051 7.81699 18.0095ZM10.4533 16.5487C9.36142 16.5151 8.50476 15.5913 8.53837 14.4826C8.57198 13.4412 9.41184 12.6013 10.4533 12.5677C11.5451 12.6013 12.4018 13.5252 12.3682 14.6338C12.3177 15.6753 11.4947 16.5152 10.4533 16.5487ZM17.3065 16.5487C16.2147 16.5151 15.358 15.5913 15.3916 14.4826C15.4253 13.4412 16.2651 12.6013 17.3065 12.5677C18.3984 12.6013 19.255 13.5252 19.2214 14.6338C19.1879 15.6753 18.348 16.5152 17.3065 16.5487Z" fill="#5727E7"/>
</svg>
