<svg width="27" height="27" viewBox="0 0 27 27" fill="none" xmlns="http://www.w3.org/2000/svg">
<rect width="27" height="27" rx="4" fill="white"/>
<path d="M19.2324 8.33057C18.9915 8.33057 18.7954 8.52663 18.7954 8.76756C18.7954 9.00848 18.9915 9.20455 19.2324 9.20455C19.4734 9.20455 19.6694 9.00852 19.6694 8.76756C19.6694 8.5266 19.4734 8.33057 19.2324 8.33057ZM14.0001 10.1258C11.8639 10.1258 10.126 11.8637 10.126 13.9999C10.126 16.1361 11.8639 17.874 14.0001 17.874C16.1363 17.874 17.8742 16.1361 17.8742 13.9999C17.8742 11.8638 16.1363 10.1258 14.0001 10.1258Z" fill="#5727E7"/>
<path d="M18.0656 5H9.93443C7.21358 5 5 7.21358 5 9.93446V18.0656C5 20.7865 7.21358 23 9.93443 23H18.0656C20.7865 23 23 20.7864 23 18.0656V9.93446C23 7.21358 20.7865 5 18.0656 5ZM14 18.9371C11.2777 18.9371 9.06297 16.7223 9.06297 14C9.06297 11.2777 11.2777 9.06301 14 9.06301C16.7223 9.06301 18.9371 11.2777 18.9371 14C18.9371 16.7223 16.7223 18.9371 14 18.9371ZM19.2323 10.2677C18.4053 10.2677 17.7324 9.59478 17.7324 8.7677C17.7324 7.94061 18.4053 7.26768 19.2323 7.26768C20.0594 7.26768 20.7323 7.94057 20.7323 8.76766C20.7323 9.59475 20.0594 10.2677 19.2323 10.2677Z" fill="#5727E7"/>
</svg>
