<svg width="834" height="1231" viewBox="0 0 834 1231" fill="none" xmlns="http://www.w3.org/2000/svg">
<rect width="834" height="1021" fill="white"/>
<path d="M247.994 168C247.994 286.465 151.849 382.5 33.2471 382.5C-85.355 382.5 -181.5 286.465 -181.5 168C-181.5 49.5355 -85.355 -46.5 33.2471 -46.5C151.849 -46.5 247.994 49.5355 247.994 168Z" stroke="#5727E7" stroke-opacity="0.12"/>
<circle cx="33.2462" cy="168.742" r="176.195" stroke="#5727E7" stroke-opacity="0.12"/>
<path d="M167.431 168C167.431 241.971 107.356 301.937 33.2474 301.937C-40.8612 301.937 -100.937 241.971 -100.937 168C-100.937 94.0299 -40.8612 34.0635 33.2474 34.0635C107.356 34.0635 167.431 94.0299 167.431 168Z" stroke="#5727E7" stroke-opacity="0.12"/>
<path d="M127.696 168C127.696 220.658 85.1531 263.344 32.6768 263.344C-19.7995 263.344 -62.3428 220.658 -62.3428 168C-62.3428 115.342 -19.7995 72.6567 32.6768 72.6567C85.1531 72.6567 127.696 115.342 127.696 168Z" stroke="#5727E7" stroke-opacity="0.12"/>
<path d="M97.908 168.971C97.908 205 68.846 234.202 33.0014 234.202C-2.84326 234.202 -31.9053 205 -31.9053 168.971C-31.9053 132.943 -2.84326 103.741 33.0014 103.741C68.846 103.741 97.908 132.943 97.908 168.971Z" stroke="#5727E7" stroke-opacity="0.12"/>
<path d="M68.7656 168.647C68.7656 188.395 52.6123 204.412 32.6768 204.412C12.7412 204.412 -3.41211 188.395 -3.41211 168.647C-3.41211 148.899 12.7412 132.882 32.6768 132.882C52.6123 132.882 68.7656 148.899 68.7656 168.647Z" stroke="#5727E7" stroke-opacity="0.12"/>
<circle cx="155.769" cy="222.972" r="3.66477" fill="#EAE5FC"/>
<circle cx="97.1341" cy="178.994" r="1.83239" fill="#EAE5FC"/>
<circle cx="115.152" cy="366.814" r="3.97017" fill="#EAE5FC"/>
<circle cx="175.315" cy="64.1648" r="3.05398" fill="#EAE5FC"/>
<g filter="url(#filter0_f_54_84)">
<ellipse cx="417" cy="675" rx="247" ry="191" transform="rotate(-180 417 675)" fill="#5DB1FF" fill-opacity="0.31"/>
</g>
<g filter="url(#filter1_f_54_84)">
<ellipse cx="368" cy="484.5" rx="185" ry="141.5" transform="rotate(-180 368 484.5)" fill="#88F8FF" fill-opacity="0.45"/>
</g>
<g filter="url(#filter2_f_54_84)">
<ellipse cx="316.5" cy="322.5" rx="146.5" ry="139.5" transform="rotate(-180 316.5 322.5)" fill="#BE6BFF" fill-opacity="0.39"/>
</g>
<path d="M986.892 48.5C986.892 142.388 910.693 218.5 816.696 218.5C722.699 218.5 646.5 142.388 646.5 48.5C646.5 -45.3879 722.699 -121.5 816.696 -121.5C910.693 -121.5 986.892 -45.3879 986.892 48.5Z" stroke="#5727E7" stroke-opacity="0.12"/>
<circle cx="816.696" cy="49.0879" r="139.624" stroke="#5727E7" stroke-opacity="0.12"/>
<path d="M923.004 48.4999C923.004 107.103 875.409 154.611 816.696 154.611C757.983 154.611 710.389 107.103 710.389 48.4999C710.389 -10.103 757.983 -57.6116 816.696 -57.6116C875.409 -57.6116 923.004 -10.103 923.004 48.4999Z" stroke="#5727E7" stroke-opacity="0.12"/>
<path d="M891.493 48.5002C891.493 90.2026 857.801 124.006 816.243 124.006C774.686 124.006 740.994 90.2026 740.994 48.5002C740.994 6.79774 774.686 -27.0059 816.243 -27.0059C857.801 -27.0059 891.493 6.79774 891.493 48.5002Z" stroke="#5727E7" stroke-opacity="0.12"/>
<path d="M867.87 49.2703C867.87 77.7847 844.869 100.896 816.501 100.896C788.133 100.896 765.132 77.7847 765.132 49.2703C765.132 20.7558 788.133 -2.35547 816.501 -2.35547C844.869 -2.35547 867.87 20.7558 867.87 49.2703Z" stroke="#5727E7" stroke-opacity="0.12"/>
<path d="M844.759 49.0134C844.759 64.6163 831.996 77.2725 816.243 77.2725C800.49 77.2725 787.728 64.6163 787.728 49.0134C787.728 33.4106 800.49 20.7544 816.243 20.7544C831.996 20.7544 844.759 33.4106 844.759 49.0134Z" stroke="#5727E7" stroke-opacity="0.12"/>
<circle cx="808.898" cy="21.8934" r="1.62898" fill="#EAE5FC"/>
<circle cx="797.224" cy="97.641" r="1.90048" fill="#EAE5FC"/>
<circle cx="698.942" cy="172.031" r="2.44347" fill="#EAE5FC"/>
<circle cx="714.417" cy="78.3646" r="2.17197" fill="#EAE5FC"/>
<defs>
<filter id="filter0_f_54_84" x="-195" y="119" width="1224" height="1112" filterUnits="userSpaceOnUse" color-interpolation-filters="sRGB">
<feFlood flood-opacity="0" result="BackgroundImageFix"/>
<feBlend mode="normal" in="SourceGraphic" in2="BackgroundImageFix" result="shape"/>
<feGaussianBlur stdDeviation="182.5" result="effect1_foregroundBlur_54_84"/>
</filter>
<filter id="filter1_f_54_84" x="-110" y="49.9995" width="956" height="869" filterUnits="userSpaceOnUse" color-interpolation-filters="sRGB">
<feFlood flood-opacity="0" result="BackgroundImageFix"/>
<feBlend mode="normal" in="SourceGraphic" in2="BackgroundImageFix" result="shape"/>
<feGaussianBlur stdDeviation="146.5" result="effect1_foregroundBlur_54_84"/>
</filter>
<filter id="filter2_f_54_84" x="-123" y="-110" width="879" height="865" filterUnits="userSpaceOnUse" color-interpolation-filters="sRGB">
<feFlood flood-opacity="0" result="BackgroundImageFix"/>
<feBlend mode="normal" in="SourceGraphic" in2="BackgroundImageFix" result="shape"/>
<feGaussianBlur stdDeviation="146.5" result="effect1_foregroundBlur_54_84"/>
</filter>
</defs>
</svg>
