<svg width="52" height="52" viewBox="0 0 52 52" fill="none" xmlns="http://www.w3.org/2000/svg">
<rect width="52" height="52" rx="12" fill="#5727E7" fill-opacity="0.09"/>
<path d="M37 26C37 25.7348 36.8946 25.4804 36.7071 25.2929C36.5196 25.1054 36.2652 25 36 25C35.7348 25 35.4804 25.1054 35.2929 25.2929C35.1054 25.4804 35 25.7348 35 26C35 28.3869 34.0518 30.6761 32.364 32.364C30.6761 34.0518 28.3869 35 26 35C23.6131 35 21.3239 34.0518 19.636 32.364C17.9482 30.6761 17 28.3869 17 26C17 25.7348 16.8946 25.4804 16.7071 25.2929C16.5196 25.1054 16.2652 25 16 25C15.7348 25 15.4804 25.1054 15.2929 25.2929C15.1054 25.4804 15 25.7348 15 26C15.0036 28.7427 16.0308 31.3852 17.8804 33.4104C19.73 35.4355 22.2689 36.6974 25 36.949V39H22C21.7348 39 21.4804 39.1054 21.2929 39.2929C21.1054 39.4804 21 39.7348 21 40C21 40.2652 21.1054 40.5196 21.2929 40.7071C21.4804 40.8946 21.7348 41 22 41H30C30.2652 41 30.5196 40.8946 30.7071 40.7071C30.8946 40.5196 31 40.2652 31 40C31 39.7348 30.8946 39.4804 30.7071 39.2929C30.5196 39.1054 30.2652 39 30 39H27V36.949C29.7311 36.6974 32.27 35.4355 34.1196 33.4104C35.9692 31.3852 36.9964 28.7427 37 26Z" fill="#5727E7"/>
<path d="M26 33C27.8558 32.9976 29.6349 32.2594 30.9471 30.9471C32.2594 29.6349 32.9976 27.8558 33 26V25H29C28.7348 25 28.4804 24.8946 28.2929 24.7071C28.1054 24.5196 28 24.2652 28 24C28 23.7348 28.1054 23.4804 28.2929 23.2929C28.4804 23.1054 28.7348 23 29 23H33V21H29C28.7348 21 28.4804 20.8946 28.2929 20.7071C28.1054 20.5196 28 20.2652 28 20C28 19.7348 28.1054 19.4804 28.2929 19.2929C28.4804 19.1054 28.7348 19 29 19H33V18C33 16.1435 32.2625 14.363 30.9497 13.0503C29.637 11.7375 27.8565 11 26 11C24.1435 11 22.363 11.7375 21.0503 13.0503C19.7375 14.363 19 16.1435 19 18V19H23C23.2652 19 23.5196 19.1054 23.7071 19.2929C23.8946 19.4804 24 19.7348 24 20C24 20.2652 23.8946 20.5196 23.7071 20.7071C23.5196 20.8946 23.2652 21 23 21H19V23H23C23.2652 23 23.5196 23.1054 23.7071 23.2929C23.8946 23.4804 24 23.7348 24 24C24 24.2652 23.8946 24.5196 23.7071 24.7071C23.5196 24.8946 23.2652 25 23 25H19V26C19.0024 27.8558 19.7406 29.6349 21.0529 30.9471C22.3651 32.2594 24.1442 32.9976 26 33Z" fill="#5727E7"/>
</svg>
