<svg width="68" height="68" viewBox="0 0 68 68" fill="none" xmlns="http://www.w3.org/2000/svg">
<g filter="url(#filter0_d_27_164)">
<circle cx="34" cy="34" r="27" fill="white"/>
</g>
<path d="M28.2048 44.5078C28.3536 44.5903 28.5218 44.6315 28.6918 44.627C28.8619 44.6225 29.0276 44.5726 29.1719 44.4824L44.4191 34.953C44.5561 34.8673 44.6691 34.7482 44.7475 34.6068C44.8258 34.4655 44.867 34.3065 44.867 34.1449C44.867 33.9832 44.8258 33.8243 44.7475 33.6829C44.6691 33.5415 44.5561 33.4224 44.4191 33.3368L29.1719 23.8072C29.0276 23.717 28.8619 23.6671 28.6918 23.6627C28.5218 23.6582 28.3536 23.6994 28.2049 23.7818C28.0561 23.8643 27.9321 23.9851 27.8457 24.1316C27.7594 24.2782 27.7139 24.4452 27.7139 24.6153V43.6743C27.7139 43.8444 27.7594 44.0114 27.8457 44.158C27.9321 44.3045 28.0561 44.4253 28.2048 44.5078Z" fill="#5727E7"/>
<defs>
<filter id="filter0_d_27_164" x="0" y="0" width="68" height="68" filterUnits="userSpaceOnUse" color-interpolation-filters="sRGB">
<feFlood flood-opacity="0" result="BackgroundImageFix"/>
<feColorMatrix in="SourceAlpha" type="matrix" values="0 0 0 0 0 0 0 0 0 0 0 0 0 0 0 0 0 0 127 0" result="hardAlpha"/>
<feOffset/>
<feGaussianBlur stdDeviation="3.5"/>
<feComposite in2="hardAlpha" operator="out"/>
<feColorMatrix type="matrix" values="0 0 0 0 0 0 0 0 0 0 0 0 0 0 0 0 0 0 0.25 0"/>
<feBlend mode="normal" in2="BackgroundImageFix" result="effect1_dropShadow_27_164"/>
<feBlend mode="normal" in="SourceGraphic" in2="effect1_dropShadow_27_164" result="shape"/>
</filter>
</defs>
</svg>
