<svg width="20" height="20" viewBox="0 0 20 20" fill="none" xmlns="http://www.w3.org/2000/svg">
<path d="M18.8008 8.80058L11.0229 8.8241V1.19921C11.0232 1.04163 10.9924 0.885539 10.9323 0.739892C10.8721 0.594245 10.7838 0.461911 10.6724 0.350488C10.5609 0.239064 10.4286 0.150744 10.283 0.090598C10.1373 0.0304521 9.98122 -0.000335393 9.82365 2.75551e-06C9.66607 -0.000335393 9.50998 0.0304521 9.36433 0.090598C9.21868 0.150744 9.08635 0.239064 8.97493 0.350488C8.8635 0.461911 8.77518 0.594245 8.71504 0.739892C8.65489 0.885539 8.6241 1.04163 8.62444 1.19921L8.64796 8.8008H1.19921C1.04163 8.80046 0.885539 8.83125 0.739892 8.89139C0.594245 8.95154 0.461911 9.03986 0.350488 9.15128C0.239064 9.2627 0.150744 9.39504 0.090598 9.54068C0.0304521 9.68633 -0.000335392 9.84242 2.75703e-06 10C-0.000335493 10.1576 0.0304535 10.3136 0.090602 10.4593C0.150751 10.6049 0.239074 10.7372 0.3505 10.8486C0.461927 10.9601 0.594262 11.0484 0.739908 11.1085C0.885554 11.1686 1.04164 11.1994 1.19921 11.199H8.6362V18.8008C8.63589 18.9584 8.6667 19.1144 8.72685 19.2601C8.78701 19.4057 8.87533 19.538 8.98675 19.6495C9.09817 19.7609 9.23049 19.8492 9.37612 19.9093C9.52176 19.9695 9.67784 20.0003 9.8354 20C9.99297 20.0003 10.1491 19.9695 10.2947 19.9093C10.4403 19.8492 10.5726 19.7609 10.6841 19.6495C10.7955 19.538 10.8838 19.4057 10.944 19.2601C11.0041 19.1144 11.0349 18.9584 11.0346 18.8008V11.1992H18.8008C18.9584 11.1995 19.1144 11.1687 19.2601 11.1086C19.4057 11.0484 19.538 10.9601 19.6495 10.8487C19.7609 10.7372 19.8492 10.6049 19.9093 10.4593C19.9695 10.3136 20.0003 10.1576 20 10C19.9997 9.68202 19.8733 9.37714 19.6485 9.15227C19.4236 8.9274 19.1188 8.80092 18.8008 8.80058Z" fill="#5727E7"/>
</svg>
