<svg width="27" height="27" viewBox="0 0 27 27" fill="none" xmlns="http://www.w3.org/2000/svg">
<rect width="27" height="27" rx="4" fill="white"/>
<path d="M20.531 9.51662C18.8505 9.51662 17.4834 8.14946 17.4834 6.46903C17.4834 6.20997 17.2734 6 17.0144 6H14.5024C14.2434 6 14.0334 6.20997 14.0334 6.46903V16.7679C14.0334 17.7558 13.2295 18.5595 12.2416 18.5595C11.2537 18.5595 10.45 17.7558 10.45 16.7679C10.45 15.7799 11.2537 14.9762 12.2416 14.9762C12.5007 14.9762 12.7107 14.7662 12.7107 14.5071V11.9951C12.7107 11.7362 12.5007 11.5261 12.2416 11.5261C9.35136 11.5261 7 13.8776 7 16.7679C7 19.6581 9.3514 22.0095 12.2416 22.0095C15.1319 22.0095 17.4834 19.6581 17.4834 16.7679V12.2091C18.4168 12.7069 19.4556 12.9667 20.531 12.9667C20.7901 12.9667 21 12.7567 21 12.4976V9.98565C21 9.72671 20.7901 9.51662 20.531 9.51662Z" fill="#5727E7"/>
</svg>
