<svg width="27" height="27" viewBox="0 0 27 27" fill="none" xmlns="http://www.w3.org/2000/svg">
<rect width="27" height="27" rx="4" fill="white"/>
<path d="M23.4615 7.77577C22.775 8.07692 22.0435 8.27654 21.2808 8.37346C22.0654 7.905 22.6642 7.16885 22.9458 6.28154C22.2142 6.71769 21.4065 7.02577 20.5458 7.19769C19.8512 6.45808 18.8612 6 17.7812 6C15.6858 6 13.9988 7.70077 13.9988 9.78577C13.9988 10.0858 14.0242 10.3742 14.0865 10.6488C10.94 10.4954 8.15577 8.98731 6.28538 6.69C5.95885 7.25654 5.76731 7.905 5.76731 8.60308C5.76731 9.91385 6.44231 11.0758 7.44846 11.7485C6.84038 11.7369 6.24385 11.5604 5.73846 11.2823V11.3238C5.73846 13.1631 7.05038 14.6908 8.77077 15.0427C8.46269 15.1269 8.12692 15.1673 7.77846 15.1673C7.53615 15.1673 7.29154 15.1535 7.06192 15.1027C7.55231 16.6015 8.94385 17.7035 10.5985 17.7392C9.31077 18.7465 7.67577 19.3535 5.90577 19.3535C5.59538 19.3535 5.29769 19.3396 5 19.3015C6.67654 20.3827 8.66346 21 10.8062 21C17.7708 21 21.5785 15.2308 21.5785 10.23C21.5785 10.0627 21.5727 9.90115 21.5646 9.74077C22.3158 9.20769 22.9469 8.54192 23.4615 7.77577Z" fill="#5727E7"/>
</svg>
