<svg width="48" height="48" viewBox="0 0 48 48" fill="none" xmlns="http://www.w3.org/2000/svg">
<rect width="48" height="48" rx="12" fill="#5727E7" fill-opacity="0.09"/>
<g clip-path="url(#clip0_24_582)">
<path d="M16.3511 18.3006H18.6137L17.4824 16.038L16.3511 18.3006Z" fill="#5727E7"/>
<path d="M24.8113 19.8533V15.1118C24.8113 12.378 22.5871 10.1538 19.8533 10.1538H15.1118C12.378 10.1538 10.1538 12.378 10.1538 15.1118V19.8534C10.1538 22.5871 12.378 24.8113 15.1118 24.8113H19.8533C22.5871 24.8113 24.8113 22.5871 24.8113 19.8533ZM15.5399 19.9232L14.9494 21.1041C14.7491 21.5048 14.2617 21.6673 13.861 21.4669C13.4602 21.2665 13.2978 20.7792 13.4982 20.3784L16.7569 13.861C16.8243 13.7262 16.9278 13.6128 17.056 13.5336C17.1842 13.4544 17.3319 13.4124 17.4825 13.4124C17.6332 13.4124 17.7809 13.4544 17.9091 13.5336C18.0372 13.6128 18.1408 13.7262 18.2082 13.861L21.4669 20.3784C21.6673 20.7792 21.5048 21.2664 21.1041 21.4669C20.9917 21.5233 20.8677 21.5527 20.7419 21.5527C20.4443 21.5527 20.1578 21.3883 20.0156 21.1041L19.4252 19.9232H15.5399ZM30.5175 31.5462C30.9313 31.0499 31.1893 30.4331 31.2887 29.6993H29.7463C29.8456 30.4332 30.1036 31.0499 30.5175 31.5462Z" fill="#5727E7"/>
<path d="M32.8883 23.1887H28.1468C25.413 23.1887 23.1888 25.4128 23.1888 28.1466V32.8882C23.1888 35.622 25.413 37.8461 28.1468 37.8461H32.8883C35.6221 37.8461 37.8463 35.622 37.8463 32.8882V28.1466C37.8463 25.4128 35.6221 23.1887 32.8883 23.1887ZM33.7763 32.9648C34.2243 32.9648 34.5876 33.3281 34.5876 33.7761C34.5876 34.2242 34.2243 34.5874 33.7763 34.5874C33.7187 34.5874 32.35 34.5796 30.9746 33.9044C30.8186 33.8276 30.6661 33.7439 30.5175 33.6535C30.369 33.7439 30.2165 33.8277 30.0605 33.9044C28.6851 34.5797 27.3164 34.5874 27.2588 34.5874C26.8108 34.5874 26.4475 34.2242 26.4475 33.7761C26.4475 33.3289 26.8093 32.9663 27.2561 32.9648C27.2719 32.9647 28.2287 32.9513 29.2051 32.5135C28.658 31.8343 28.2332 30.9223 28.1123 29.6994H27.2588C26.8108 29.6994 26.4475 29.3361 26.4475 28.8881C26.4475 28.44 26.8108 28.0768 27.2588 28.0768H29.7062V27.2587C29.7062 26.8107 30.0695 26.4474 30.5175 26.4474C30.9656 26.4474 31.3288 26.8107 31.3288 27.2587V28.0768H33.7763C34.2243 28.0768 34.5876 28.44 34.5876 28.8881C34.5876 29.3361 34.2243 29.6994 33.7763 29.6994H32.9228C32.8018 30.9221 32.3771 31.8342 31.8301 32.5134C32.8078 32.9517 33.7664 32.9648 33.7763 32.9648ZM27.2588 18.2939H28.7777C29.2897 18.2939 29.7062 18.7104 29.7062 19.2224V20.7413C29.7062 21.1893 30.0695 21.5526 30.5175 21.5526C30.9656 21.5526 31.3288 21.1893 31.3288 20.7413V19.2224C31.3288 17.8157 30.1844 16.6713 28.7777 16.6713H27.2588C26.8108 16.6713 26.4475 17.0345 26.4475 17.4826C26.4475 17.9306 26.8108 18.2939 27.2588 18.2939ZM20.7414 29.7061H19.2225C18.7105 29.7061 18.294 29.2896 18.294 28.7776V27.2587C18.294 26.8107 17.9307 26.4474 17.4827 26.4474C17.0346 26.4474 16.6714 26.8107 16.6714 27.2587V28.7776C16.6714 30.1843 17.8158 31.3287 19.2225 31.3287H20.7414C21.1895 31.3287 21.5527 30.9655 21.5527 30.5174C21.5527 30.0694 21.1895 29.7061 20.7414 29.7061Z" fill="#5727E7"/>
</g>
<defs>
<clipPath id="clip0_24_582">
<rect width="27.6923" height="27.6923" fill="white" transform="translate(10.1538 10.1538)"/>
</clipPath>
</defs>
</svg>
