<svg width="52" height="52" viewBox="0 0 52 52" fill="none" xmlns="http://www.w3.org/2000/svg">
<rect width="52" height="52" rx="12" fill="#5727E7" fill-opacity="0.09"/>
<path d="M39.9535 16.2326H35.7674V12.0465C35.7674 11.769 35.6572 11.5028 35.4609 11.3065C35.2647 11.1103 34.9985 11 34.7209 11H12.0465C11.769 11 11.5028 11.1103 11.3065 11.3065C11.1103 11.5028 11 11.769 11 12.0465V34.7488C11.0073 35.0215 11.1207 35.2806 11.3162 35.4709C11.5117 35.6611 11.7737 35.7675 12.0465 35.7674H16.2326V39.9535C16.2326 40.231 16.3428 40.4972 16.5391 40.6935C16.7353 40.8897 17.0015 41 17.2791 41H39.9535C40.231 41 40.4972 40.8897 40.6935 40.6935C40.8897 40.4972 41 40.231 41 39.9535V17.2512C40.9927 16.9785 40.8793 16.7194 40.6838 16.5291C40.4883 16.3389 40.2263 16.2325 39.9535 16.2326ZM13.093 33.6744V13.093H33.6744V16.2326H17.2512C16.9742 16.2344 16.7091 16.3452 16.5132 16.5411C16.3173 16.737 16.2065 17.0021 16.2047 17.2791V33.6744H13.093Z" fill="#5727E7"/>
</svg>
